<?xml version="1.0" encoding="UTF-8"?>
<svg width="269px" height="220px" viewBox="0 0 269 220" version="1.1" xmlns="http://www.w3.org/2000/svg" xmlns:xlink="http://www.w3.org/1999/xlink">
    <!-- Generator: Sketch 51.3 (57544) - http://www.bohemiancoding.com/sketch -->
    <title>marker</title>
    <desc>Created with Sketch.</desc>
    <defs></defs>
    <g id="marker" stroke="none" stroke-width="1" fill="none" fill-rule="evenodd">
        <g id="Group-3-Copy" transform="translate(172.000000, 54.000000)" fill="#FFFFFF">
            <text id="Magnitude" font-family="PTMono-Regular, PT Mono" font-size="10" font-weight="normal">
                <tspan x="43" y="9">Magnitude</tspan>
            </text>
            <path id="Line" d="M35.5,10 L35.5,2 L35.5,1.5 L34.5,1.5 L34.5,2 L34.5,10 L34.5,10.5 L35.5,10.5 L35.5,10 Z M0,6.5 L2,6.5 L2.5,6.5 L2.5,5.5 L2,5.5 L0,5.5 L-0.5,5.5 L-0.5,6.5 L0,6.5 Z M4,6.5 L6,6.5 L6.5,6.5 L6.5,5.5 L6,5.5 L4,5.5 L3.5,5.5 L3.5,6.5 L4,6.5 Z M8,6.5 L10,6.5 L10.5,6.5 L10.5,5.5 L10,5.5 L8,5.5 L7.5,5.5 L7.5,6.5 L8,6.5 Z M12,6.5 L14,6.5 L14.5,6.5 L14.5,5.5 L14,5.5 L12,5.5 L11.5,5.5 L11.5,6.5 L12,6.5 Z M16,6.5 L18,6.5 L18.5,6.5 L18.5,5.5 L18,5.5 L16,5.5 L15.5,5.5 L15.5,6.5 L16,6.5 Z M20,6.5 L22,6.5 L22.5,6.5 L22.5,5.5 L22,5.5 L20,5.5 L19.5,5.5 L19.5,6.5 L20,6.5 Z M24,6.5 L26,6.5 L26.5,6.5 L26.5,5.5 L26,5.5 L24,5.5 L23.5,5.5 L23.5,6.5 L24,6.5 Z M28,6.5 L30,6.5 L30.5,6.5 L30.5,5.5 L30,5.5 L28,5.5 L27.5,5.5 L27.5,6.5 L28,6.5 Z M32,6.5 L34,6.5 L34.5,6.5 L34.5,5.5 L34,5.5 L32,5.5 L31.5,5.5 L31.5,6.5 L32,6.5 Z" fill-rule="nonzero"></path>
        </g>
        <g id="Group-3-Copy-5" transform="translate(149.000000, 119.000000)" fill="#FFFFFF">
            <text id="Recency" font-family="PTMono-Regular, PT Mono" font-size="10" font-weight="normal">
                <tspan x="66" y="48">Recency</tspan>
            </text>
            <text id="[opacity]" opacity="0.697433036" font-family="PTMono-Regular, PT Mono" font-size="9" font-weight="normal">
                <tspan x="66" y="59">[opacity]</tspan>
            </text>
            <path id="Line" d="M55.9472776,48.4693415 L60.8435535,42.1426929 L61.1495707,41.7472774 L60.3587396,41.1352429 L60.0527224,41.5306585 L55.1564465,47.8573071 L54.8504293,48.2527226 L55.6412604,48.8647571 L55.9472776,48.4693415 Z M0.193982758,0.895415538 L1.77564491,2.11948451 L2.17106045,2.42550175 L2.78309493,1.63467067 L2.38767939,1.32865343 L0.806017242,0.104584462 L0.410601705,-0.20143278 L-0.20143278,0.589398295 L0.193982758,0.895415538 Z M3.35730706,3.34355348 L4.93896921,4.56762244 L5.33438475,4.87363969 L5.94641923,4.08280861 L5.55100369,3.77679137 L3.96934154,2.5527224 L3.57392601,2.24670516 L2.96189152,3.03753623 L3.35730706,3.34355348 Z M6.52063136,5.79169141 L8.10229351,7.01576038 L8.49770905,7.32177762 L9.10974353,6.53094655 L8.714328,6.22492931 L7.13266585,5.00086034 L6.73725031,4.6948431 L6.12521582,5.48567417 L6.52063136,5.79169141 Z M9.68395566,8.23982935 L11.2656178,9.46389832 L11.6610334,9.76991556 L12.2730678,8.97908449 L11.8776523,8.67306724 L10.2959901,7.44899828 L9.90057461,7.14298103 L9.28854013,7.93381211 L9.68395566,8.23982935 Z M12.84728,10.6879673 L14.4289421,11.9120363 L14.8243577,12.2180535 L15.4363921,11.4272224 L15.0409766,11.1212052 L13.4593144,9.89713621 L13.0638989,9.59111897 L12.4518644,10.38195 L12.84728,10.6879673 Z M16.0106043,13.1361052 L17.5922664,14.3601742 L17.987682,14.6661914 L18.5997164,13.8753604 L18.2043009,13.5693431 L16.6226388,12.3452742 L16.2272232,12.0392569 L15.6151887,12.830088 L16.0106043,13.1361052 Z M19.1739286,15.5842432 L20.7555907,16.8083121 L21.1510063,17.1143294 L21.7630407,16.3234983 L21.3676252,16.0174811 L19.7859631,14.7934121 L19.3905475,14.4873948 L18.778513,15.2782259 L19.1739286,15.5842432 Z M22.3372529,18.0323811 L23.918915,19.2564501 L24.3143306,19.5624673 L24.926365,18.7716362 L24.5309495,18.465619 L22.9492874,17.24155 L22.5538718,16.9355328 L21.9418373,17.7263639 L22.3372529,18.0323811 Z M25.5005772,20.480519 L27.0822393,21.704588 L27.4776549,22.0106053 L28.0896893,21.2197742 L27.6942738,20.9137569 L26.1126117,19.689688 L25.7171961,19.3836707 L25.1051616,20.1745018 L25.5005772,20.480519 Z M28.6639015,22.928657 L30.2455636,24.1527259 L30.6409792,24.4587432 L31.2530136,23.6679121 L30.8575981,23.3618949 L29.275936,22.1378259 L28.8805204,21.8318087 L28.2684859,22.6226397 L28.6639015,22.928657 Z M31.8272258,25.3767949 L33.4088879,26.6008639 L33.8043035,26.9068811 L34.4163379,26.1160501 L34.0209224,25.8100328 L32.4392603,24.5859638 L32.0438447,24.2799466 L31.4318102,25.0707777 L31.8272258,25.3767949 Z M34.9905501,27.8249329 L36.5722122,29.0490018 L36.9676278,29.3550191 L37.5796622,28.564188 L37.1842467,28.2581707 L35.6025846,27.0341018 L35.207169,26.7280845 L34.5951345,27.5189156 L34.9905501,27.8249329 Z M38.1538744,30.2730708 L39.7355365,31.4971398 L40.1309521,31.803157 L40.7429866,31.0123259 L40.347571,30.7063087 L38.7659089,29.4822397 L38.3704933,29.1762225 L37.7584588,29.9670535 L38.1538744,30.2730708 Z M41.3171987,32.7212087 L42.8988608,33.9452777 L43.2942764,34.2512949 L43.9063109,33.4604639 L43.5108953,33.1544466 L41.9292332,31.9303777 L41.5338176,31.6243604 L40.9217831,32.4151915 L41.3171987,32.7212087 Z M44.480523,35.1693467 L46.0621851,36.3934156 L46.4576007,36.6994329 L47.0696352,35.9086018 L46.6742196,35.6025846 L45.0925575,34.3785156 L44.6971419,34.0724983 L44.0851074,34.8633294 L44.480523,35.1693467 Z M47.6438473,37.6174846 L49.2255094,38.8415536 L49.620925,39.1475708 L50.2329595,38.3567397 L49.8375439,38.0507225 L48.2558818,36.8266535 L47.8604662,36.5206363 L47.2484317,37.3114674 L47.6438473,37.6174846 Z M50.8071716,40.0656225 L52.3888337,41.2896915 L52.7842493,41.5957088 L53.3962838,40.8048777 L53.0008682,40.4988604 L51.4192061,39.2747915 L51.0237905,38.9687742 L50.411756,39.7596053 L50.8071716,40.0656225 Z M53.9704959,42.5137605 L55.552158,43.7378294 L55.9475736,44.0438467 L56.5596081,43.2530156 L56.1641925,42.9469984 L54.5825304,41.7229294 L54.1871148,41.4169122 L53.5750803,42.2077432 L53.9704959,42.5137605 Z M57.1338202,44.9618984 L57.6939828,45.3954155 L58.0893983,45.7014328 L58.7014328,44.9106017 L58.3060172,44.6045845 L57.7458547,44.1710673 L57.3504391,43.8650501 L56.7384046,44.6558812 L57.1338202,44.9618984 Z" fill-rule="nonzero"></path>
        </g>
        <g id="Group-2" transform="translate(89.000000, 5.000000)">
            <g id="Group" transform="translate(0.000000, 5.000000)">
                <polyline id="Triangle" stroke="#7C92F7" points="0 102 51 0 51 0 102 102"></polyline>
                <polyline id="Triangle-Copy" stroke="#7CF7E0" transform="translate(51.000000, 153.000000) scale(1, -1) translate(-51.000000, -153.000000) " points="0 204 51 102 51 102 102 204"></polyline>
            </g>
            <circle id="Oval-2" stroke="#7C92F7" fill-opacity="0.3" fill="#7C92F7" cx="51" cy="5" r="5"></circle>
            <circle id="Oval-2-Copy" stroke="#7CF7E0" fill-opacity="0.3" fill="#7CF7E0" cx="51" cy="209" r="5"></circle>
            <rect id="Rectangle" fill="#F7CC7C" x="0" y="106" width="102" height="1"></rect>
            <circle id="Oval" stroke="#F77C7C" fill-opacity="0.5" fill="#F77C7C" cx="51.5" cy="106.5" r="11.5"></circle>
        </g>
        <g id="Group-3" transform="translate(150.000000, -1.000000)" fill="#FFFFFF">
            <text id="Magnitude-Error" font-family="PTMono-Regular, PT Mono" font-size="10" font-weight="normal">
                <tspan x="65" y="9">Magnitude </tspan>
                <tspan x="65" y="20">Error</tspan>
            </text>
            <path id="Line" d="M57.5,15 L57.5,7 L57.5,6.5 L56.5,6.5 L56.5,7 L56.5,15 L56.5,15.5 L57.5,15.5 L57.5,15 Z M0,11.5 L2,11.5 L2.5,11.5 L2.5,10.5 L2,10.5 L0,10.5 L-0.5,10.5 L-0.5,11.5 L0,11.5 Z M4,11.5 L6,11.5 L6.5,11.5 L6.5,10.5 L6,10.5 L4,10.5 L3.5,10.5 L3.5,11.5 L4,11.5 Z M8,11.5 L10,11.5 L10.5,11.5 L10.5,10.5 L10,10.5 L8,10.5 L7.5,10.5 L7.5,11.5 L8,11.5 Z M12,11.5 L14,11.5 L14.5,11.5 L14.5,10.5 L14,10.5 L12,10.5 L11.5,10.5 L11.5,11.5 L12,11.5 Z M16,11.5 L18,11.5 L18.5,11.5 L18.5,10.5 L18,10.5 L16,10.5 L15.5,10.5 L15.5,11.5 L16,11.5 Z M20,11.5 L22,11.5 L22.5,11.5 L22.5,10.5 L22,10.5 L20,10.5 L19.5,10.5 L19.5,11.5 L20,11.5 Z M24,11.5 L26,11.5 L26.5,11.5 L26.5,10.5 L26,10.5 L24,10.5 L23.5,10.5 L23.5,11.5 L24,11.5 Z M28,11.5 L30,11.5 L30.5,11.5 L30.5,10.5 L30,10.5 L28,10.5 L27.5,10.5 L27.5,11.5 L28,11.5 Z M32,11.5 L34,11.5 L34.5,11.5 L34.5,10.5 L34,10.5 L32,10.5 L31.5,10.5 L31.5,11.5 L32,11.5 Z M36,11.5 L38,11.5 L38.5,11.5 L38.5,10.5 L38,10.5 L36,10.5 L35.5,10.5 L35.5,11.5 L36,11.5 Z M40,11.5 L42,11.5 L42.5,11.5 L42.5,10.5 L42,10.5 L40,10.5 L39.5,10.5 L39.5,11.5 L40,11.5 Z M44,11.5 L46,11.5 L46.5,11.5 L46.5,10.5 L46,10.5 L44,10.5 L43.5,10.5 L43.5,11.5 L44,11.5 Z M48,11.5 L50,11.5 L50.5,11.5 L50.5,10.5 L50,10.5 L48,10.5 L47.5,10.5 L47.5,11.5 L48,11.5 Z M52,11.5 L54,11.5 L54.5,11.5 L54.5,10.5 L54,10.5 L52,10.5 L51.5,10.5 L51.5,11.5 L52,11.5 Z M56,11.5 L57,11.5 L57.5,11.5 L57.5,10.5 L57,10.5 L56,10.5 L55.5,10.5 L55.5,11.5 L56,11.5 Z" fill-rule="nonzero"></path>
        </g>
        <g id="Group-3-Copy-2" transform="translate(36.000000, 158.000000)" fill="#FFFFFF">
            <text id="Depth" font-family="PTMono-Regular, PT Mono" font-size="10" font-weight="normal">
                <tspan x="0" y="9">Depth</tspan>
            </text>
            <path id="Line" d="M37.5,2 L37.5,10 L37.5,10.5 L38.5,10.5 L38.5,10 L38.5,2 L38.5,1.5 L37.5,1.5 L37.5,2 Z M38,6.5 L40,6.5 L40.5,6.5 L40.5,5.5 L40,5.5 L38,5.5 L37.5,5.5 L37.5,6.5 L38,6.5 Z M42,6.5 L44,6.5 L44.5,6.5 L44.5,5.5 L44,5.5 L42,5.5 L41.5,5.5 L41.5,6.5 L42,6.5 Z M46,6.5 L48,6.5 L48.5,6.5 L48.5,5.5 L48,5.5 L46,5.5 L45.5,5.5 L45.5,6.5 L46,6.5 Z M50,6.5 L52,6.5 L52.5,6.5 L52.5,5.5 L52,5.5 L50,5.5 L49.5,5.5 L49.5,6.5 L50,6.5 Z M54,6.5 L56,6.5 L56.5,6.5 L56.5,5.5 L56,5.5 L54,5.5 L53.5,5.5 L53.5,6.5 L54,6.5 Z M58,6.5 L60,6.5 L60.5,6.5 L60.5,5.5 L60,5.5 L58,5.5 L57.5,5.5 L57.5,6.5 L58,6.5 Z M62,6.5 L64,6.5 L64.5,6.5 L64.5,5.5 L64,5.5 L62,5.5 L61.5,5.5 L61.5,6.5 L62,6.5 Z M66,6.5 L68,6.5 L68.5,6.5 L68.5,5.5 L68,5.5 L66,5.5 L65.5,5.5 L65.5,6.5 L66,6.5 Z" fill-rule="nonzero"></path>
        </g>
        <g id="Group-3-Copy-4" transform="translate(6.000000, 57.000000)" fill="#FFFFFF">
            <text id="Horizontal-Error" font-family="PTMono-Regular, PT Mono" font-size="10" font-weight="normal">
                <tspan x="0" y="9">Horizontal</tspan>
                <tspan x="30" y="20">Error</tspan>
            </text>
            <path id="Line" d="M70.8880022,14.2523169 L65.3860451,20.0599384 L65.0421727,20.4229148 L65.7681254,21.1106594 L66.1119978,20.7476831 L71.6139549,14.9400616 L71.9578273,14.5770852 L71.2318746,13.8893406 L70.8880022,14.2523169 Z M106.843872,53.1370237 L105.391967,51.7615344 L105.028991,51.417662 L104.341246,52.1436147 L104.704222,52.487487 L106.156128,53.8629763 L106.519104,54.2068487 L107.206849,53.480896 L106.843872,53.1370237 Z M103.940062,50.3860451 L102.488156,49.0105558 L102.12518,48.6666834 L101.437435,49.3926361 L101.800412,49.7365085 L103.252317,51.1119978 L103.615293,51.4558701 L104.303038,50.7299174 L103.940062,50.3860451 Z M101.036251,47.6350665 L99.5843455,46.2595772 L99.2213691,45.9157049 L98.5336245,46.6416575 L98.8966008,46.9855299 L100.348506,48.3610192 L100.711483,48.7048915 L101.399227,47.9789388 L101.036251,47.6350665 Z M98.1324401,44.8840879 L96.6805347,43.5085986 L96.3175584,43.1647263 L95.6298138,43.8906789 L95.9927901,44.2345513 L97.4446955,45.6100406 L97.8076718,45.9539129 L98.4954165,45.2279602 L98.1324401,44.8840879 Z M95.2286294,42.1331093 L93.776724,40.75762 L93.4137477,40.4137477 L92.726003,41.1397004 L93.0889794,41.4835727 L94.5408847,42.859062 L94.9038611,43.2029343 L95.5916057,42.4769816 L95.2286294,42.1331093 Z M92.3248186,39.3821307 L90.8729133,38.0066414 L90.5099369,37.6627691 L89.8221923,38.3887218 L90.1851686,38.7325941 L91.637074,40.1080834 L92.0000503,40.4519557 L92.687795,39.726003 L92.3248186,39.3821307 Z M89.4210079,36.6311521 L87.9691025,35.2556628 L87.6061262,34.9117905 L86.9183816,35.6377432 L87.2813579,35.9816155 L88.7332633,37.3571048 L89.0962396,37.7009771 L89.7839843,36.9750244 L89.4210079,36.6311521 Z M86.5171972,33.8801735 L85.0652918,32.5046842 L84.7023155,32.1608119 L84.0145708,32.8867646 L84.3775472,33.2306369 L85.8294525,34.6061262 L86.1924289,34.9499985 L86.8801735,34.2240458 L86.5171972,33.8801735 Z M83.6133864,31.1291949 L82.1614811,29.7537056 L81.7985047,29.4098333 L81.1107601,30.135786 L81.4737364,30.4796583 L82.9256418,31.8551476 L83.2886181,32.1990199 L83.9763628,31.4730672 L83.6133864,31.1291949 Z M80.7095757,28.3782163 L79.2576703,27.002727 L78.894694,26.6588547 L78.2069493,27.3848074 L78.5699257,27.7286797 L80.0218311,29.104169 L80.3848074,29.4480413 L81.072552,28.7220887 L80.7095757,28.3782163 Z M77.805765,25.6272377 L76.3538596,24.2517484 L75.9908833,23.9078761 L75.3031386,24.6338288 L75.666115,24.9777011 L77.1180203,26.3531904 L77.4809967,26.6970627 L78.1687413,25.9711101 L77.805765,25.6272377 Z M74.9019542,22.8762591 L73.4500489,21.5007699 L73.0870725,21.1568975 L72.3993279,21.8828502 L72.7623042,22.2267225 L74.2142096,23.6022118 L74.5771859,23.9460842 L75.2649306,23.2201315 L74.9019542,22.8762591 Z M71.9981435,20.1252806 L70.5462381,18.7497913 L70.1832618,18.4059189 L69.4955171,19.1318716 L69.8584935,19.4757439 L71.3103988,20.8512332 L71.6733752,21.1951056 L72.3611198,20.4691529 L71.9981435,20.1252806 Z M69.0943328,17.374302 L68.8438723,17.1370237 L68.480896,16.7931513 L67.7931513,17.519104 L68.1561277,17.8629763 L68.4065881,18.1002547 L68.7695645,18.444127 L69.4573091,17.7181743 L69.0943328,17.374302 Z" fill-rule="nonzero"></path>
        </g>
        <g id="Group-3-Copy-3" transform="translate(0.000000, 208.000000)" fill="#FFFFFF">
            <text id="Depth-Error" font-family="PTMono-Regular, PT Mono" font-size="10" font-weight="normal">
                <tspan x="0" y="9">Depth Error</tspan>
            </text>
            <path id="Line" d="M73.5,2 L73.5,10 L73.5,10.5 L74.5,10.5 L74.5,10 L74.5,2 L74.5,1.5 L73.5,1.5 L73.5,2 Z M74,6.5 L76,6.5 L76.5,6.5 L76.5,5.5 L76,5.5 L74,5.5 L73.5,5.5 L73.5,6.5 L74,6.5 Z M78,6.5 L80,6.5 L80.5,6.5 L80.5,5.5 L80,5.5 L78,5.5 L77.5,5.5 L77.5,6.5 L78,6.5 Z M82,6.5 L84,6.5 L84.5,6.5 L84.5,5.5 L84,5.5 L82,5.5 L81.5,5.5 L81.5,6.5 L82,6.5 Z M86,6.5 L88,6.5 L88.5,6.5 L88.5,5.5 L88,5.5 L86,5.5 L85.5,5.5 L85.5,6.5 L86,6.5 Z M90,6.5 L92,6.5 L92.5,6.5 L92.5,5.5 L92,5.5 L90,5.5 L89.5,5.5 L89.5,6.5 L90,6.5 Z M94,6.5 L96,6.5 L96.5,6.5 L96.5,5.5 L96,5.5 L94,5.5 L93.5,5.5 L93.5,6.5 L94,6.5 Z M98,6.5 L100,6.5 L100.5,6.5 L100.5,5.5 L100,5.5 L98,5.5 L97.5,5.5 L97.5,6.5 L98,6.5 Z M102,6.5 L104,6.5 L104.5,6.5 L104.5,5.5 L104,5.5 L102,5.5 L101.5,5.5 L101.5,6.5 L102,6.5 Z M106,6.5 L108,6.5 L108.5,6.5 L108.5,5.5 L108,5.5 L106,5.5 L105.5,5.5 L105.5,6.5 L106,6.5 Z M110,6.5 L112,6.5 L112.5,6.5 L112.5,5.5 L112,5.5 L110,5.5 L109.5,5.5 L109.5,6.5 L110,6.5 Z M114,6.5 L116,6.5 L116.5,6.5 L116.5,5.5 L116,5.5 L114,5.5 L113.5,5.5 L113.5,6.5 L114,6.5 Z M118,6.5 L120,6.5 L120.5,6.5 L120.5,5.5 L120,5.5 L118,5.5 L117.5,5.5 L117.5,6.5 L118,6.5 Z M122,6.5 L124,6.5 L124.5,6.5 L124.5,5.5 L124,5.5 L122,5.5 L121.5,5.5 L121.5,6.5 L122,6.5 Z M126,6.5 L128,6.5 L128.5,6.5 L128.5,5.5 L128,5.5 L126,5.5 L125.5,5.5 L125.5,6.5 L126,6.5 Z" fill-rule="nonzero"></path>
        </g>
    </g>
</svg>